<svg width="18" height="18" viewBox="0 0 18 18" fill="none" xmlns="http://www.w3.org/2000/svg">
<g id="contacts">
<mask id="mask0_7274_195" style="mask-type:alpha" maskUnits="userSpaceOnUse" x="0" y="0" width="18" height="18">
<rect id="Bounding box" width="18" height="18" fill="#D9D9D9"/>
</mask>
<g mask="url(#mask0_7274_195)">
<path id="contacts_2" d="M2.99805 17.2505V15.7505H14.998V17.2505H2.99805ZM2.99805 2.25049V0.750488H14.998V2.25049H2.99805ZM8.99805 9.75049C9.62305 9.75049 10.1543 9.53174 10.5918 9.09424C11.0293 8.65674 11.248 8.12549 11.248 7.50049C11.248 6.87549 11.0293 6.34424 10.5918 5.90674C10.1543 5.46924 9.62305 5.25049 8.99805 5.25049C8.37305 5.25049 7.8418 5.46924 7.4043 5.90674C6.9668 6.34424 6.74805 6.87549 6.74805 7.50049C6.74805 8.12549 6.9668 8.65674 7.4043 9.09424C7.8418 9.53174 8.37305 9.75049 8.99805 9.75049ZM2.99805 15.0005C2.58555 15.0005 2.23242 14.8536 1.93867 14.5599C1.64492 14.2661 1.49805 13.913 1.49805 13.5005V4.50049C1.49805 4.08799 1.64492 3.73486 1.93867 3.44111C2.23242 3.14736 2.58555 3.00049 2.99805 3.00049H14.998C15.4105 3.00049 15.7637 3.14736 16.0574 3.44111C16.3512 3.73486 16.498 4.08799 16.498 4.50049V13.5005C16.498 13.913 16.3512 14.2661 16.0574 14.5599C15.7637 14.8536 15.4105 15.0005 14.998 15.0005H2.99805ZM4.31055 13.5005H13.6855C13.123 12.8005 12.4418 12.2505 11.6418 11.8505C10.8418 11.4505 9.96055 11.2505 8.99805 11.2505C8.03555 11.2505 7.1543 11.4505 6.3543 11.8505C5.5543 12.2505 4.87305 12.8005 4.31055 13.5005Z" fill="white"/>
</g>
</g>
</svg>
