<svg width="251" height="24" viewBox="0 0 251 24" fill="none" xmlns="http://www.w3.org/2000/svg">
<path id="Vector" d="M250.962 22.9404C250.784 23.6508 249.948 24.158 249.193 23.9548C228.769 18.6411 211.273 13.5417 178.432 10.308C125.908 5.15183 72.8393 7.63472 21.2795 15.1383C18.5712 15.2171 -0.0660971 19.1959 0.0160916 16.4237C-0.289181 13.8218 3.82613 14.0598 5.80844 13.267C12.2309 11.6923 18.7434 10.46 25.2598 9.2735C72.0272 1.13819 119.773 -0.850325 167.257 0.299568C185.332 1.05213 203.592 2.12329 221.17 6.35848C224.826 7.51387 229.544 8.04487 231.968 11.099C233.291 13.5307 229.54 14.9735 229.262 12.2196C225.8 10.0828 221.57 9.36139 217.628 8.3122C195.21 3.70164 169.624 2.73485 146.792 2.75316C109.339 2.67077 71.8178 4.60801 34.8583 10.482C89.1244 3.81334 144.594 2.24963 198.809 10.0737C219.202 12.8935 236.99 17.8995 249.878 21.2833C250.255 21.3714 250.579 21.5944 250.782 21.9044C250.985 22.2143 251.049 22.5863 250.962 22.9404Z" fill="white"/>
</svg>
